<svg xmlns="http://www.w3.org/2000/svg" xmlns:xlink="http://www.w3.org/1999/xlink" width="500" zoomAndPan="magnify" viewBox="0 0 375 374.999991" height="500" preserveAspectRatio="xMidYMid meet" version="1.0"><defs><clipPath id="3afcd6e8be"><path d="M 141 22.03125 L 239 22.03125 L 239 161 L 141 161 Z M 141 22.03125 " clip-rule="nonzero"/></clipPath></defs><path fill="#000000" d="M 73.726562 171.390625 C 73.726562 171.390625 122.195312 210.28125 123.5625 250.53125 C 102.402344 269.632812 43.015625 249.847656 25.261719 195.269531 C 15.703125 166.613281 19.113281 124.316406 0 110 C 53.933594 97.710938 180.214844 124.316406 162.476562 290.796875 C 157.007812 295.570312 144.039062 292.15625 144.039062 292.15625 C 144.039062 292.15625 148.816406 197.992188 73.726562 171.390625 Z M 73.726562 171.390625 " fill-opacity="1" fill-rule="nonzero"/><path fill="#000000" d="M 174.960938 344 C 174.960938 344 181.179688 352.6875 190.457031 344.6875 C 189.097656 305.113281 186.144531 180.085938 288.023438 141.59375 C 249.515625 167.675781 218.453125 196.222656 207.273438 260.804688 C 239.574219 278.183594 305.417969 265.773438 330.269531 191.261719 C 355.117188 116.761719 374.996094 106.824219 374.996094 106.824219 C 374.996094 106.824219 139.726562 40.023438 174.960938 344 Z M 174.960938 344 " fill-opacity="1" fill-rule="nonzero"/><g clip-path="url(#3afcd6e8be)"><path fill="#000000" d="M 155.226562 160.164062 C 155.226562 160.164062 90.429688 57.347656 238.777344 22.128906 C 229.679688 31.78125 230.820312 53.933594 230.253906 80.636719 C 229.679688 107.335938 218.316406 154.476562 169.433594 160.738281 C 169.433594 160.738281 158.640625 99.390625 196.714844 64.730469 C 196.714844 64.730469 155.796875 80.636719 155.226562 160.164062 Z M 155.226562 160.164062 " fill-opacity="1" fill-rule="nonzero"/></g></svg>